<svg id="visual" viewBox="0 0 900 600" width="900" height="600" xmlns="http://www.w3.org/2000/svg" xmlns:xlink="http://www.w3.org/1999/xlink" version="1.1"><rect x="0" y="0" width="900" height="600" fill="#FFFFFF"></rect><path d="M367 0L448 0L448 100L422 100L422 200L387 200L387 300L421 300L421 400L384 400L384 500L450 500L450 600L0 600L0 500L0 500L0 400L0 400L0 300L0 300L0 200L0 200L0 100L0 100L0 0L0 0Z" fill="#f7770f"></path><path d="M365 0L315 0L315 100L333 100L333 200L324 200L324 300L273 300L273 400L258 400L258 500L362 500L362 600L0 600L0 500L0 500L0 400L0 400L0 300L0 300L0 200L0 200L0 100L0 100L0 0L0 0Z" fill="#da630c"></path><path d="M201 0L175 0L175 100L235 100L235 200L114 200L114 300L168 300L168 400L141 400L141 500L154 500L154 600L0 600L0 500L0 500L0 400L0 400L0 300L0 300L0 200L0 200L0 100L0 100L0 0L0 0Z" fill="#be4f08"></path></svg>